<svg width="19" height="19" fill="none" xmlns="http://www.w3.org/2000/svg"><path d="M16.22 13.57 13 10.642a.793.793 0 0 0-1.101.034l-1.895 1.949c-.456-.088-1.372-.373-2.316-1.315-.944-.944-1.23-1.863-1.314-2.316L8.32 7.1a.792.792 0 0 0 .034-1.102L5.43 2.781a.792.792 0 0 0-1.1-.069L2.61 4.186a.792.792 0 0 0-.23.513c-.011.198-.238 4.886 3.398 8.523 3.171 3.171 7.144 3.403 8.238 3.403.16 0 .258-.005.284-.006a.786.786 0 0 0 .513-.23l1.472-1.72a.79.79 0 0 0-.067-1.1Z" fill="#DCD7C0"/><path d="M16.22 13.57 13 10.642a.793.793 0 0 0-1.101.034l-1.895 1.949c-.456-.088-1.372-.373-2.316-1.315-.944-.944-1.23-1.863-1.314-2.316L8.32 7.1a.792.792 0 0 0 .034-1.102L5.43 2.781a.792.792 0 0 0-1.1-.069L2.61 4.186a.792.792 0 0 0-.23.513c-.011.198-.238 4.886 3.398 8.523 3.171 3.171 7.144 3.403 8.238 3.403.16 0 .258-.005.284-.006a.786.786 0 0 0 .513-.23l1.472-1.72a.79.79 0 0 0-.067-1.1Z" fill="url(#a)"/><defs><linearGradient id="a" x1="6.963" y1="2.522" x2="11.869" y2="4.021" gradientUnits="userSpaceOnUse"><stop stop-color="#E0DEDE"/><stop offset=".984" stop-color="#A2A0A0"/></linearGradient></defs></svg>